<svg width="228" height="119" viewBox="0 0 228 119" fill="none" xmlns="http://www.w3.org/2000/svg">
<path d="M226.764 30.9219C227.557 22.1006 227.062 13.081 225.277 4.06151C225.277 4.06151 223.097 -15.8607 149.454 39.8423C148.661 40.437 147.571 40.5361 146.679 39.9414C138.353 34.5891 127.549 34.5891 119.125 40.2387C117.935 41.0317 117.638 42.8157 118.629 43.906L127.054 53.6194C128.045 54.7096 127.748 56.3946 126.558 57.2866C84.1367 86.2284 53.2126 60.4583 41.616 47.5733C41.0213 46.8795 40.8231 45.8883 41.2196 44.9963L55.3931 10.9996C55.9878 9.61199 55.1949 8.12526 53.7081 7.72879C43.4001 4.85444 32.2 10.1076 28.0372 20.2174C25.9558 25.074 25.8566 30.3272 27.3434 34.9856C27.839 36.7697 26.4513 38.4547 24.6673 38.1573C19.8106 37.4635 14.6566 38.4547 10.1964 41.2299C0.78037 47.0777 -2.49045 58.8725 1.96976 68.5858C2.56445 69.9734 4.24942 70.469 5.53792 69.6761L35.7682 50.745C37.1558 49.853 38.9399 50.5468 39.3364 52.0335C48.0586 79.2903 68.179 100.402 93.1562 111.106C91.5704 110.413 91.1739 108.232 92.4624 107.043C102.77 97.825 127.946 93.6621 137.56 93.6621C142.218 93.6621 146.679 91.7789 149.85 88.409C157.879 79.9841 166.403 67 179.189 71.5593C201.688 77.5062 200.895 31.3183 226.566 31.4174C226.566 31.8139 226.467 32.2104 226.467 32.7059" fill="#003D70"/>
<path d="M200.3 89.2018C201.093 88.3098 201.886 87.5169 202.679 86.6248C202.778 86.4266 202.976 86.3275 203.076 86.1292C204.463 84.7416 205.752 83.354 206.842 81.669C207.139 81.2726 207.437 80.8761 207.635 80.4797C208.329 79.4885 209.122 78.4973 209.815 77.5062L209.914 77.4071C210.608 76.4159 211.401 75.4248 212.095 74.3345L213.978 71.1628C215.861 67.892 217.646 64.522 219.132 61.053V60.9539C220.619 57.4848 222.007 53.9167 223.097 50.2494C224.98 44.1042 226.169 37.8599 226.764 31.3183C201.093 31.2192 201.886 77.4071 179.387 71.4601C165.907 66.6035 157.185 81.1735 148.859 89.4992C146.084 92.2744 142.318 93.5629 138.452 93.5629C128.541 93.3647 98.4093 98.2214 90.1827 109.62C91.1739 110.115 92.2642 110.611 93.3544 111.007C93.4536 111.106 93.6518 111.106 93.7509 111.206C94.7421 111.602 95.8323 112.098 96.8235 112.494C97.3191 112.692 97.9138 112.89 98.4093 113.188C99.797 113.981 101.284 114.476 102.77 114.675C103.266 114.774 103.762 114.873 104.257 115.071C105.347 115.368 106.339 115.666 107.429 115.963C107.627 115.963 107.825 116.062 108.024 116.062C109.114 116.36 110.204 116.558 111.294 116.855C111.493 116.855 111.592 116.954 111.79 116.954C112.484 117.252 113.277 117.351 114.07 117.45C114.466 117.45 114.863 117.549 115.259 117.648C116.349 117.846 117.44 117.945 118.53 118.144C118.728 118.144 118.926 118.243 119.125 118.243C120.215 118.342 121.305 118.54 122.494 118.639C122.594 118.639 122.792 118.639 122.891 118.639C123.981 118.738 125.071 118.837 126.162 118.837C126.261 118.837 126.36 118.837 126.459 118.837C127.549 118.937 128.739 118.937 129.829 118.937C130.027 118.937 130.225 118.937 130.523 118.937C131.613 118.937 132.802 118.937 133.893 118.937C134.388 118.937 134.785 118.837 135.28 118.937C135.974 119.036 136.767 119.036 137.461 118.837C137.659 118.738 137.857 118.738 138.056 118.738C139.245 118.639 140.335 118.54 141.525 118.441C141.723 118.441 141.921 118.441 142.218 118.342C143.309 118.243 144.498 118.045 145.588 117.846C145.787 117.846 145.985 117.747 146.183 117.747C147.372 117.549 148.562 117.351 149.751 117.152C150.941 116.954 152.13 116.657 153.319 116.36C153.518 116.26 153.815 116.26 154.013 116.161C155.104 115.864 156.293 115.567 157.383 115.269C157.78 115.17 158.176 114.972 158.672 114.873C159.465 114.675 160.357 114.377 161.15 114.08C161.249 113.981 161.447 113.981 161.546 113.981C162.636 113.584 163.727 113.188 164.916 112.791C165.114 112.692 165.312 112.593 165.61 112.593C166.7 112.197 167.79 111.8 168.781 111.305C168.98 111.206 169.079 111.206 169.277 111.106C170.268 110.71 171.259 110.214 172.251 109.719C172.35 109.62 172.449 109.62 172.548 109.521C173.638 109.025 174.629 108.529 175.62 107.935C175.819 107.836 176.017 107.736 176.215 107.637C177.206 107.142 178.197 106.547 179.288 105.952C179.387 105.952 179.387 105.853 179.486 105.853C180.477 105.259 181.468 104.664 182.36 104.069C182.459 103.97 182.658 103.871 182.757 103.772C183.748 103.177 184.64 102.483 185.631 101.889C185.829 101.79 185.928 101.69 186.127 101.591C187.118 100.897 188.01 100.204 189.001 99.5099C189.001 99.5099 189.1 99.5099 189.1 99.4108C189.992 98.7169 190.983 98.0231 191.875 97.2302C191.975 97.1311 192.074 97.032 192.173 96.9329C193.065 96.2391 193.957 95.4461 194.849 94.6532C195.444 94.1576 196.038 93.5629 196.633 93.2656C197.921 92.5718 198.814 91.4815 199.606 90.193C199.606 89.8956 199.904 89.5983 200.3 89.2018Z" fill="#EDFAFF"/>
</svg>
