<svg width="228" height="112" viewBox="0 0 228 112" fill="none" xmlns="http://www.w3.org/2000/svg">
<path d="M226.764 30.9219C227.557 22.1006 227.062 13.081 225.277 4.06151C225.277 4.06151 223.097 -15.8607 149.454 39.8423C148.661 40.437 147.571 40.5361 146.679 39.9414C138.353 34.5891 127.549 34.5891 119.125 40.2387C117.935 41.0317 117.638 42.8157 118.629 43.906L127.054 53.6194C128.045 54.7096 127.748 56.3946 126.558 57.2866C84.1367 86.2284 53.2126 60.4583 41.616 47.5733C41.0213 46.8795 40.8231 45.8883 41.2196 44.9963L55.3931 10.9996C55.9878 9.61199 55.1949 8.12526 53.7081 7.72879C43.4001 4.85444 32.2 10.1076 28.0372 20.2174C25.9558 25.074 25.8566 30.3272 27.3434 34.9856C27.839 36.7697 26.4513 38.4547 24.6673 38.1573C19.8106 37.4635 14.6566 38.4547 10.1964 41.2299C0.78037 47.0777 -2.49045 58.8725 1.96976 68.5858C2.56445 69.9734 4.24942 70.469 5.53792 69.6761L35.7682 50.745C37.1558 49.853 38.9399 50.5468 39.3364 52.0335C48.0586 79.2903 68.179 100.402 93.1562 111.106C91.5704 110.413 91.1739 108.232 92.4624 107.043C102.77 97.825 127.946 93.6621 137.56 93.6621C142.218 93.6621 146.679 91.7789 149.85 88.409C157.879 79.9841 166.403 67 179.189 71.5593C201.688 77.5062 200.895 31.3183 226.566 31.4174C226.566 31.8139 226.467 32.2104 226.467 32.7059" fill="#003D70"/>
</svg>
