<svg width="228" height="147" viewBox="0 0 228 147" fill="none" xmlns="http://www.w3.org/2000/svg">
<g style="mix-blend-mode:multiply">
<path d="M189.794 31.5659C206.941 61.3997 195.84 99.361 165.114 116.409C134.388 133.457 95.6341 122.951 78.4871 93.1167C61.3401 63.2829 72.4411 25.3216 103.167 8.27371C133.893 -8.77419 172.647 1.73208 189.794 31.5659Z" fill="url(#paint0_radial)"/>
</g>
<path d="M226.764 58.9219C227.557 50.1006 227.062 41.081 225.277 32.0615C225.277 32.0615 223.097 12.1393 149.454 67.8423C148.661 68.437 147.571 68.5361 146.679 67.9414C138.353 62.5891 127.549 62.5891 119.125 68.2387C117.935 69.0317 117.638 70.8157 118.629 71.906L127.054 81.6194C128.045 82.7096 127.748 84.3946 126.558 85.2866C84.1367 114.228 53.2126 88.4583 41.616 75.5733C41.0213 74.8795 40.8231 73.8883 41.2196 72.9963L55.3931 38.9996C55.9878 37.612 55.1949 36.1253 53.7081 35.7288C43.4001 32.8544 32.2 38.1076 28.0372 48.2174C25.9558 53.074 25.8566 58.3272 27.3434 62.9856C27.839 64.7697 26.4513 66.4547 24.6673 66.1573C19.8106 65.4635 14.6566 66.4547 10.1964 69.2299C0.78037 75.0777 -2.49045 86.8725 1.96976 96.5858C2.56445 97.9734 4.24942 98.469 5.53792 97.6761L35.7682 78.745C37.1558 77.853 38.9399 78.5468 39.3364 80.0335C48.0586 107.29 68.179 128.402 93.1562 139.106C91.5704 138.413 91.1739 136.232 92.4624 135.043C102.77 125.825 127.946 121.662 137.56 121.662C142.218 121.662 146.679 119.779 149.85 116.409C157.879 107.984 166.403 95 179.189 99.5593C201.688 105.506 200.895 59.3183 226.566 59.4174C226.566 59.8139 226.467 60.2104 226.467 60.7059" fill="#003D70"/>
<path d="M200.3 117.202C201.093 116.31 201.886 115.517 202.679 114.625C202.778 114.427 202.976 114.327 203.076 114.129C204.463 112.742 205.752 111.354 206.842 109.669C207.139 109.273 207.437 108.876 207.635 108.48C208.329 107.488 209.122 106.497 209.815 105.506L209.914 105.407C210.608 104.416 211.401 103.425 212.095 102.334L213.978 99.1628C215.861 95.892 217.646 92.522 219.132 89.053V88.9539C220.619 85.4848 222.007 81.9167 223.097 78.2494C224.98 72.1042 226.169 65.8599 226.764 59.3183C201.093 59.2192 201.886 105.407 179.387 99.4601C165.907 94.6035 157.185 109.173 148.859 117.499C146.084 120.274 142.318 121.563 138.452 121.563C128.541 121.365 98.4093 126.221 90.1827 137.62C91.1739 138.115 92.2642 138.611 93.3544 139.007C93.4536 139.106 93.6518 139.106 93.7509 139.206C94.7421 139.602 95.8323 140.098 96.8235 140.494C97.3191 140.692 97.9138 140.89 98.4093 141.188C99.797 141.981 101.284 142.476 102.77 142.675C103.266 142.774 103.762 142.873 104.257 143.071C105.347 143.368 106.339 143.666 107.429 143.963C107.627 143.963 107.825 144.062 108.024 144.062C109.114 144.36 110.204 144.558 111.294 144.855C111.493 144.855 111.592 144.954 111.79 144.954C112.484 145.252 113.277 145.351 114.07 145.45C114.466 145.45 114.863 145.549 115.259 145.648C116.349 145.846 117.44 145.945 118.53 146.144C118.728 146.144 118.926 146.243 119.125 146.243C120.215 146.342 121.305 146.54 122.494 146.639C122.594 146.639 122.792 146.639 122.891 146.639C123.981 146.738 125.071 146.837 126.162 146.837C126.261 146.837 126.36 146.837 126.459 146.837C127.549 146.937 128.739 146.937 129.829 146.937C130.027 146.937 130.225 146.937 130.523 146.937C131.613 146.937 132.802 146.937 133.893 146.937C134.388 146.937 134.785 146.837 135.28 146.937C135.974 147.036 136.767 147.036 137.461 146.837C137.659 146.738 137.857 146.738 138.056 146.738C139.245 146.639 140.335 146.54 141.525 146.441C141.723 146.441 141.921 146.441 142.218 146.342C143.309 146.243 144.498 146.045 145.588 145.846C145.787 145.846 145.985 145.747 146.183 145.747C147.372 145.549 148.562 145.351 149.751 145.152C150.941 144.954 152.13 144.657 153.319 144.36C153.518 144.26 153.815 144.26 154.013 144.161C155.104 143.864 156.293 143.567 157.383 143.269C157.78 143.17 158.176 142.972 158.672 142.873C159.465 142.675 160.357 142.377 161.15 142.08C161.249 141.981 161.447 141.981 161.546 141.981C162.636 141.584 163.727 141.188 164.916 140.791C165.114 140.692 165.312 140.593 165.61 140.593C166.7 140.197 167.79 139.8 168.781 139.305C168.98 139.206 169.079 139.206 169.277 139.106C170.268 138.71 171.259 138.214 172.251 137.719C172.35 137.62 172.449 137.62 172.548 137.521C173.638 137.025 174.629 136.529 175.62 135.935C175.819 135.836 176.017 135.736 176.215 135.637C177.206 135.142 178.197 134.547 179.288 133.952C179.387 133.952 179.387 133.853 179.486 133.853C180.477 133.259 181.468 132.664 182.36 132.069C182.459 131.97 182.658 131.871 182.757 131.772C183.748 131.177 184.64 130.483 185.631 129.889C185.829 129.79 185.928 129.69 186.127 129.591C187.118 128.897 188.01 128.204 189.001 127.51C189.001 127.51 189.1 127.51 189.1 127.411C189.992 126.717 190.983 126.023 191.875 125.23C191.975 125.131 192.074 125.032 192.173 124.933C193.065 124.239 193.957 123.446 194.849 122.653C195.444 122.158 196.038 121.563 196.633 121.266C197.921 120.572 198.814 119.482 199.606 118.193C199.606 117.896 199.904 117.598 200.3 117.202Z" fill="#EDFAFF"/>
<path d="M189.695 64.2741C191.479 55.0564 197.029 41.6758 207.139 47.6227C208.031 48.1183 208.626 48.8121 209.022 49.8032C210.311 53.3714 207.04 57.9307 204.166 61.6971C199.904 67.1485 190.091 74.2848 189.596 66.9503C189.398 66.0582 189.497 65.1662 189.695 64.2741Z" fill="#EDFAFF"/>
<path d="M198.318 135.538C183.054 136.232 170.367 124.735 169.773 109.867C169.277 95 181.171 82.4123 196.336 81.7185" fill="#003D70"/>
<defs>
<radialGradient id="paint0_radial" cx="0" cy="0" r="1" gradientUnits="userSpaceOnUse" gradientTransform="translate(134.138 62.3295) scale(62.9553)">
<stop offset="0.00124008" stop-color="#068BF6"/>
<stop offset="0.3666" stop-color="#0584EF"/>
<stop offset="0.8986" stop-color="#0172DC"/>
<stop offset="1" stop-color="#006ED7"/>
</radialGradient>
</defs>
</svg>
